<?xml version="1.0" encoding="utf-8"?>
<!-- Generator: Adobe Illustrator 19.0.0, SVG Export Plug-In . SVG Version: 6.00 Build 0)  -->
<svg version="1.1" id="Layer_1" xmlns="http://www.w3.org/2000/svg" xmlns:xlink="http://www.w3.org/1999/xlink" x="0px" y="0px"
	 viewBox="0 0 549.1 228.8" style="enable-background:new 0 0 549.1 228.8;" xml:space="preserve">
<style type="text/css">
	.st0{fill:#0E7CC1;}
	.st1{fill:url(#XMLID_101_);}
	.st2{fill:#22B1E4;}
	.st3{fill:#3DB5E3;}
	.st4{fill:#21C2EC;}
	.st5{fill:#1694D2;}
	.st6{fill:#035599;}
	.st7{fill:#1E4385;}
	.st8{fill:#243D81;}
	.st9{fill:#212B5E;}
	.st10{fill:#222A62;}
	.st11{fill:#161D4A;}
	.st12{fill:#19315A;}
</style>
<g id="XMLID_1_">
	<path id="XMLID_19_" class="st0" d="M268.4,114.4l-1.8-5h-12.7l-1.9,5h-7.2l11.5-29.6h7.9l11.4,29.6H268.4z M260.3,91.1l-4.6,12.7
		h9.2L260.3,91.1z"/>
	<path id="XMLID_22_" class="st0" d="M275.4,99.6c0-9.1,6.9-15.3,15.8-15.3c6.5,0,10.3,3.6,12.4,7.2l-5.4,2.7
		c-1.2-2.4-3.9-4.3-7-4.3c-5.4,0-9.3,4.1-9.3,9.7s3.9,9.7,9.3,9.7c3.1,0,5.7-1.9,7-4.3l5.4,2.6c-2.1,3.7-5.9,7.3-12.4,7.3
		C282.3,114.9,275.4,108.7,275.4,99.6z"/>
	<path id="XMLID_24_" class="st0" d="M333.1,114.4V93.6l-8.4,20.7H322l-8.4-20.7v20.7h-6.3V84.8h8.8l7.2,17.9l7.2-17.9h8.9v29.6
		H333.1z"/>
	<path id="XMLID_26_" class="st0" d="M357.3,114.4V84.8h13.2c5.2,0,8.3,3.1,8.3,7.6c0,3.7-2.5,6.2-5.2,6.8c3.2,0.5,5.8,3.7,5.8,7.3
		c0,4.8-3.2,8-8.6,8H357.3z M375,92.8c0-2.7-1.8-4.8-5.1-4.8H361v9.5h8.9C373.3,97.6,375,95.5,375,92.8z M375.6,106
		c0-2.7-1.9-5.1-5.5-5.1H361v10.2h9.1C373.6,111.1,375.6,109.1,375.6,106z"/>
	<path id="XMLID_30_" class="st0" d="M385.3,114.4V84.8h3.7v29.6H385.3z"/>
	<path id="XMLID_32_" class="st0" d="M403.2,114.4V88h-9.4v-3.3h22.5V88h-9.4v26.3H403.2z"/>
	<path id="XMLID_34_" class="st0" d="M419.3,110.2l2.2-2.8c2,2.2,5.2,4.2,9.3,4.2c5.3,0,7-2.8,7-5.1c0-7.6-17.5-3.4-17.5-14
		c0-4.9,4.4-8.2,10.2-8.2c4.5,0,8,1.5,10.5,4.1l-2.2,2.7c-2.2-2.4-5.3-3.6-8.6-3.6c-3.6,0-6.1,1.9-6.1,4.7c0,6.7,17.5,2.8,17.5,13.9
		c0,4.3-2.9,8.7-10.9,8.7C425.5,114.9,421.8,113,419.3,110.2z"/>
	<path id="XMLID_36_" class="st0" d="M457.4,99.6c0-9.2,6.8-15.3,15.2-15.3c5.2,0,8.9,2.3,11.5,5.6l-2.9,1.8c-1.9-2.4-5-4.1-8.6-4.1
		c-6.5,0-11.4,5-11.4,12c0,7,4.9,12.1,11.4,12.1c3.6,0,6.5-1.7,8-3.2v-6h-10.2v-3.3h13.9v10.7c-2.8,3.1-6.8,5.1-11.6,5.1
		C464.2,115,457.4,108.8,457.4,99.6z"/>
	<path id="XMLID_38_" class="st0" d="M488.9,103.6c0-6.2,4.1-11.2,10.6-11.2c6.5,0,10.6,5,10.6,11.2c0,6.2-4.1,11.3-10.6,11.3
		C492.9,114.9,488.9,109.8,488.9,103.6z M506.6,103.6c0-4.4-2.5-8.3-7.1-8.3c-4.6,0-7.2,3.9-7.2,8.3c0,4.4,2.6,8.3,7.2,8.3
		C504.1,111.9,506.6,108,506.6,103.6z"/>
	<path id="XMLID_41_" class="st0" d="M528.9,114.4v-2.4c-1.8,2-4.2,3-7.1,3c-3.6,0-7.5-2.4-7.5-7.1c0-4.8,3.9-7.1,7.5-7.1
		c2.9,0,5.4,0.9,7.1,2.9v-3.9c0-2.9-2.3-4.5-5.4-4.5c-2.6,0-4.7,0.9-6.6,3l-1.6-2.3c2.3-2.4,5.1-3.6,8.6-3.6c4.5,0,8.3,2,8.3,7.2
		v14.7H528.9z M528.9,109.8v-4c-1.3-1.8-3.6-2.7-5.9-2.7c-3.1,0-5.3,2-5.3,4.7c0,2.7,2.2,4.7,5.3,4.7
		C525.4,112.5,527.6,111.6,528.9,109.8z"/>
	<path id="XMLID_44_" class="st0" d="M246,142.1l1.2-1.6c1.1,1.2,2.9,2.4,5.3,2.4c3,0,3.9-1.6,3.9-2.9c0-4.3-9.9-1.9-9.9-7.9
		c0-2.8,2.5-4.6,5.7-4.6c2.6,0,4.5,0.9,5.9,2.3l-1.3,1.5c-1.3-1.4-3-2-4.8-2c-2,0-3.4,1.1-3.4,2.7c0,3.8,9.9,1.6,9.9,7.8
		c0,2.4-1.7,4.9-6.2,4.9C249.5,144.7,247.4,143.6,246,142.1z"/>
	<path id="XMLID_46_" class="st0" d="M261.6,141.9V134h-2v-1.7h2V129h1.9v3.3h2.5v1.7h-2.5v7.5c0,0.9,0.4,1.6,1.2,1.6
		c0.5,0,1-0.2,1.3-0.5l0.5,1.4c-0.5,0.5-1.2,0.8-2.3,0.8C262.5,144.7,261.6,143.7,261.6,141.9z"/>
	<path id="XMLID_48_" class="st0" d="M276.7,144.4v-1.7c-0.9,1.1-2.5,2-4.3,2c-2.5,0-3.9-1.2-3.9-3.9v-8.5h1.9v8
		c0,2.1,1.1,2.8,2.7,2.8c1.5,0,2.9-0.9,3.6-1.8v-8.9h1.9v12.1H276.7z"/>
	<path id="XMLID_50_" class="st0" d="M291.1,144.4v-1.8c-0.9,1.2-2.4,2.1-4.1,2.1c-3.2,0-5.4-2.4-5.4-6.3c0-3.9,2.2-6.4,5.4-6.4
		c1.6,0,3.1,0.8,4.1,2.1v-6.4h1.9v16.7H291.1z M291.1,141.1v-5.5c-0.7-1.1-2.1-2-3.6-2c-2.4,0-3.9,2-3.9,4.7c0,2.7,1.5,4.7,3.9,4.7
		C289,143,290.4,142.2,291.1,141.1z"/>
	<path id="XMLID_53_" class="st0" d="M296,138.3c0-3.5,2.5-6.3,6-6.3c3.7,0,5.8,2.9,5.8,6.5v0.5H298c0.2,2.3,1.8,4.2,4.4,4.2
		c1.4,0,2.8-0.6,3.7-1.5l0.9,1.2c-1.2,1.2-2.8,1.9-4.8,1.9C298.6,144.7,296,142.1,296,138.3z M301.9,133.6c-2.6,0-3.9,2.2-4,4h7.9
		C305.9,135.8,304.7,133.6,301.9,133.6z"/>
	<path id="XMLID_56_" class="st0" d="M319,144.4v-7.9c0-2.1-1.1-2.8-2.7-2.8c-1.5,0-2.9,0.9-3.6,1.9v8.8h-1.9v-12.1h1.9v1.8
		c0.9-1,2.5-2.1,4.3-2.1c2.5,0,3.9,1.3,3.9,3.9v8.5H319z"/>
	<path id="XMLID_58_" class="st0" d="M325,141.9V134h-2v-1.7h2V129h1.9v3.3h2.5v1.7h-2.5v7.5c0,0.9,0.4,1.6,1.2,1.6
		c0.5,0,1-0.2,1.3-0.5l0.5,1.4c-0.5,0.5-1.2,0.8-2.3,0.8C325.9,144.7,325,143.7,325,141.9z"/>
	<path id="XMLID_60_" class="st0" d="M337.8,136.1c0-5.1,3.8-8.6,8.6-8.6c3,0,5,1.4,6.3,3.3l-1.8,1c-1-1.4-2.7-2.4-4.6-2.4
		c-3.7,0-6.4,2.8-6.4,6.8c0,4,2.8,6.8,6.4,6.8c1.9,0,3.6-1,4.6-2.4l1.8,1c-1.4,1.9-3.4,3.3-6.4,3.3
		C341.6,144.7,337.8,141.2,337.8,136.1z"/>
	<path id="XMLID_62_" class="st0" d="M363.5,144.4v-8c0-2.1-1.1-2.8-2.7-2.8c-1.5,0-2.9,0.9-3.6,1.9v8.8h-1.9v-16.7h1.9v6.4
		c0.9-1,2.5-2.1,4.3-2.1c2.5,0,3.9,1.2,3.9,3.9v8.5H363.5z"/>
	<path id="XMLID_64_" class="st0" d="M376.7,144.4V143c-1,1.1-2.4,1.7-4,1.7c-2.1,0-4.2-1.4-4.2-4c0-2.7,2.2-4,4.2-4
		c1.7,0,3,0.5,4,1.7v-2.2c0-1.6-1.3-2.6-3.1-2.6c-1.5,0-2.6,0.5-3.7,1.7l-0.9-1.3c1.3-1.4,2.9-2,4.8-2c2.6,0,4.7,1.2,4.7,4.1v8.3
		H376.7z M376.7,141.9v-2.3c-0.7-1-2-1.5-3.3-1.5c-1.8,0-3,1.1-3,2.7c0,1.5,1.2,2.6,3,2.6C374.7,143.4,376,142.9,376.7,141.9z"/>
	<path id="XMLID_67_" class="st0" d="M384.2,142.6v6.4h-1.9v-16.7h1.9v1.8c0.9-1.2,2.4-2.1,4.1-2.1c3.2,0,5.4,2.4,5.4,6.3
		c0,3.9-2.2,6.4-5.4,6.4C386.6,144.7,385.2,143.9,384.2,142.6z M391.7,138.3c0-2.7-1.5-4.7-3.9-4.7c-1.5,0-3,0.9-3.6,1.9v5.5
		c0.7,1.1,2.1,2,3.6,2C390.2,143,391.7,141,391.7,138.3z"/>
	<path id="XMLID_70_" class="st0" d="M397,141.9V134h-2v-1.7h2V129h1.9v3.3h2.5v1.7h-2.5v7.5c0,0.9,0.4,1.6,1.2,1.6
		c0.5,0,1-0.2,1.3-0.5l0.5,1.4c-0.5,0.5-1.2,0.8-2.3,0.8C397.9,144.7,397,143.7,397,141.9z"/>
	<path id="XMLID_72_" class="st0" d="M403.3,138.3c0-3.5,2.5-6.3,6-6.3c3.7,0,5.8,2.9,5.8,6.5v0.5h-9.8c0.1,2.3,1.8,4.2,4.4,4.2
		c1.4,0,2.8-0.6,3.7-1.5l0.9,1.2c-1.2,1.2-2.8,1.9-4.8,1.9C405.9,144.7,403.3,142.1,403.3,138.3z M409.2,133.6c-2.6,0-3.9,2.2-4,4
		h7.9C413.2,135.8,412,133.6,409.2,133.6z"/>
	<path id="XMLID_75_" class="st0" d="M418.1,144.4v-12.1h1.9v2c1-1.3,2.4-2.2,4-2.2v1.9c-0.2,0-0.5-0.1-0.8-0.1
		c-1.2,0-2.7,1-3.3,1.9v8.6H418.1z"/>
</g>
<g id="XMLID_10_">
	<linearGradient id="XMLID_101_" gradientUnits="userSpaceOnUse" x1="0" y1="114.3769" x2="114.3769" y2="114.3769">
		<stop  offset="0" style="stop-color:#273C8E"/>
		<stop  offset="0.1995" style="stop-color:#255DA2"/>
		<stop  offset="0.3992" style="stop-color:#2678B6"/>
		<stop  offset="0.5859" style="stop-color:#2490C9"/>
		<stop  offset="0.754" style="stop-color:#23A2D7"/>
		<stop  offset="0.8977" style="stop-color:#23ADE0"/>
		<stop  offset="1" style="stop-color:#22B1E4"/>
	</linearGradient>
	<path id="XMLID_134_" class="st1" d="M43.9,114.4c0-38.9,31.6-70.5,70.5-70.5V0L0,114.4l114.4,114.4v-43.9
		C75.4,184.9,43.9,153.3,43.9,114.4z"/>
	<path id="XMLID_133_" class="st2" d="M43.9,114.4c0,38.9,31.6,70.5,70.5,70.5v-7.9c-34.5,0-62.5-28-62.5-62.5s28-62.5,62.5-62.5
		v-7.9C75.4,43.9,43.9,75.4,43.9,114.4z"/>
	<g id="XMLID_132_">
		<path id="XMLID_94_" class="st2" d="M84.3,120.6l-0.4-3h-0.2c-1.7,2.1-4.6,3.7-8.1,3.7c-5.5,0-8.6-4-8.6-8.2
			c0-6.9,6.1-10.4,16.3-10.4v-0.4c0-1.8-0.7-4.8-5.6-4.8c-2.7,0-5.5,0.8-7.4,2L68.9,95c2-1.2,5.6-2.4,9.9-2.4
			c8.8,0,11.3,5.6,11.3,11.5v9.9c0,2.5,0.1,4.9,0.4,6.6H84.3z M83.4,107.2c-4.9-0.1-9.6,1-9.6,5.1c0,2.7,1.7,3.9,3.9,3.9
			c2.8,0,4.8-1.8,5.4-3.8c0.2-0.5,0.2-1.1,0.2-1.5V107.2z"/>
		<path id="XMLID_97_" class="st2" d="M117.6,119.7c-1.5,0.7-4.3,1.4-7.8,1.4c-8.6,0-14.1-5.5-14.1-14c0-8.2,5.6-14.6,15.2-14.6
			c2.5,0,5.1,0.6,6.7,1.3l-1.2,5.2c-1.1-0.5-2.8-1.1-5.2-1.1c-5.3,0-8.4,3.9-8.4,8.9c0,5.6,3.7,8.8,8.4,8.8c2.4,0,4.1-0.5,5.5-1.1
			L117.6,119.7z"/>
		<path id="XMLID_99_" class="st2" d="M122.7,101.3c0-3.2-0.1-5.8-0.2-8.2h6l0.3,4.1h0.2c1.4-2.1,3.8-4.7,8.4-4.7
			c3.6,0,6.4,2,7.6,5.1h0.1c1-1.5,2.1-2.6,3.4-3.4c1.5-1.1,3.3-1.6,5.5-1.6c4.6,0,9.2,3.1,9.2,11.9v16.1h-6.8v-15.1
			c0-4.6-1.6-7.3-4.9-7.3c-2.4,0-4.1,1.7-4.8,3.7c-0.2,0.7-0.3,1.5-0.3,2.3v16.4h-6.8v-15.9c0-3.8-1.5-6.5-4.7-6.5
			c-2.6,0-4.3,2-5,3.9c-0.3,0.7-0.4,1.5-0.4,2.3v16.2h-6.8V101.3z"/>
	</g>
	<g id="XMLID_131_">
		<path id="XMLID_77_" class="st2" d="M95.6,138.2c-0.5,0.2-1.5,0.5-2.8,0.5c-3.5,0-5.6-2.2-5.6-5.5c0-3.6,2.5-5.8,5.8-5.8
			c1.3,0,2.3,0.3,2.7,0.5l-0.4,1.6c-0.5-0.2-1.2-0.4-2.1-0.4c-2.2,0-3.8,1.4-3.8,4c0,2.4,1.4,3.9,3.8,3.9c0.8,0,1.7-0.2,2.2-0.4
			L95.6,138.2z"/>
		<path id="XMLID_79_" class="st2" d="M97.2,127h2v4.7h0c0.2-0.4,0.6-0.7,1-0.9c0.4-0.2,0.9-0.4,1.4-0.4c1.3,0,2.8,0.9,2.8,3.4v4.7
			h-2v-4.4c0-1.2-0.4-2-1.5-2c-0.8,0-1.3,0.5-1.5,1.1c-0.1,0.2-0.1,0.4-0.1,0.6v4.7h-2V127z"/>
		<path id="XMLID_81_" class="st2" d="M110.9,138.5l-0.1-0.9h0c-0.5,0.6-1.3,1.1-2.3,1.1c-1.6,0-2.5-1.2-2.5-2.4c0-2,1.8-3,4.7-3
			v-0.1c0-0.5-0.2-1.4-1.6-1.4c-0.8,0-1.6,0.2-2.1,0.6l-0.4-1.3c0.6-0.4,1.6-0.7,2.9-0.7c2.5,0,3.3,1.6,3.3,3.3v2.9
			c0,0.7,0,1.4,0.1,1.9H110.9z M110.6,134.7c-1.4,0-2.8,0.3-2.8,1.5c0,0.8,0.5,1.1,1.1,1.1c0.8,0,1.4-0.5,1.6-1.1
			c0-0.1,0.1-0.3,0.1-0.4V134.7z"/>
		<path id="XMLID_84_" class="st2" d="M114.7,133.2c0-1,0-1.9-0.1-2.6h1.8l0.1,1.2h0c0.6-0.9,1.5-1.4,2.7-1.4c1.8,0,3.3,1.6,3.3,4
			c0,2.9-1.8,4.2-3.6,4.2c-1,0-1.8-0.4-2.2-1.1h0v4.1h-2V133.2z M116.7,135.2c0,0.2,0,0.4,0.1,0.6c0.2,0.8,0.9,1.4,1.8,1.4
			c1.3,0,2-1.1,2-2.6c0-1.4-0.7-2.5-2-2.5c-0.8,0-1.6,0.6-1.8,1.5c0,0.2-0.1,0.3-0.1,0.5V135.2z"/>
		<path id="XMLID_87_" class="st2" d="M126.5,128.4v2.3h1.9v1.5h-1.9v3.5c0,1,0.3,1.5,1,1.5c0.3,0,0.6,0,0.8-0.1l0,1.5
			c-0.3,0.1-0.8,0.2-1.4,0.2c-0.7,0-1.3-0.2-1.7-0.6c-0.4-0.5-0.6-1.2-0.6-2.2v-3.7h-1.1v-1.5h1.1v-1.8L126.5,128.4z"/>
		<path id="XMLID_89_" class="st2" d="M131.2,135.1c0,1.4,1.2,2,2.4,2c0.9,0,1.6-0.1,2.2-0.4l0.3,1.4c-0.7,0.3-1.6,0.5-2.8,0.5
			c-2.6,0-4.1-1.6-4.1-4c0-2.2,1.3-4.2,3.9-4.2c2.6,0,3.4,2.1,3.4,3.8c0,0.4,0,0.7-0.1,0.8H131.2z M134.7,133.7
			c0-0.7-0.3-1.9-1.6-1.9c-1.2,0-1.8,1.1-1.8,1.9H134.7z"/>
		<path id="XMLID_92_" class="st2" d="M138.1,133.2c0-1.1,0-1.8-0.1-2.5h1.7l0.1,1.5h0.1c0.4-1.1,1.3-1.7,2.2-1.7c0.2,0,0.3,0,0.5,0
			v1.9c-0.2,0-0.3-0.1-0.6-0.1c-1,0-1.6,0.6-1.8,1.5c0,0.2-0.1,0.4-0.1,0.6v4.1h-2V133.2z"/>
	</g>
	<polygon id="XMLID_130_" class="st3" points="114.4,0 114.4,17.6 114.4,35.3 132,17.6 	"/>
	<polygon id="XMLID_129_" class="st4" points="114.4,0 114.4,17.6 114.4,35.3 96.7,17.6 	"/>
	<polygon id="XMLID_128_" class="st4" points="114.4,193.5 114.4,211.1 114.4,228.8 96.7,211.1 	"/>
	<polygon id="XMLID_127_" class="st0" points="114.4,35.3 114.4,52.9 114.4,70.5 132,52.9 	"/>
	<polygon id="XMLID_126_" class="st5" points="132,17.6 132,35.3 132,52.9 114.4,35.3 	"/>
	<polygon id="XMLID_125_" class="st6" points="149.6,35.3 149.6,52.9 149.6,70.5 132,52.9 	"/>
	<polygon id="XMLID_124_" class="st7" points="149.6,35.3 149.6,52.9 149.6,70.5 167.3,52.9 	"/>
	<polygon id="XMLID_123_" class="st0" points="132,17.6 132,35.3 132,52.9 149.6,35.3 	"/>
	<polygon id="XMLID_122_" class="st8" points="193.5,79.1 193.5,89.9 193.5,100.6 182.7,89.9 	"/>
	<polygon id="XMLID_121_" class="st3" points="114.4,228.8 114.4,211.1 114.4,193.5 132,211.1 	"/>
	<polygon id="XMLID_120_" class="st0" points="114.4,193.5 114.4,175.9 114.4,158.2 132,175.9 	"/>
	<polygon id="XMLID_119_" class="st7" points="149.6,158.2 149.6,140.6 149.6,123 167.3,140.6 	"/>
	<polygon id="XMLID_118_" class="st5" points="132,211.1 132,193.5 132,175.9 114.4,193.5 	"/>
	<polygon id="XMLID_117_" class="st6" points="149.6,193.5 149.6,175.9 149.6,158.2 132,175.9 	"/>
	<polygon id="XMLID_116_" class="st0" points="132,211.1 132,193.5 132,175.9 149.6,193.5 	"/>
	<polygon id="XMLID_115_" class="st7" points="193.5,149.6 193.5,132 193.5,114.4 211.1,132 	"/>
	<polygon id="XMLID_114_" class="st9" points="193.5,114.4 193.5,96.7 193.5,79.1 211.1,96.7 	"/>
	<polygon id="XMLID_113_" class="st10" points="211.1,132 211.1,114.4 211.1,96.7 193.5,114.4 	"/>
	<polygon id="XMLID_112_" class="st11" points="211.1,132 211.1,114.4 211.1,96.7 228.8,114.4 	"/>
	<polygon id="XMLID_111_" class="st12" points="167.3,175.9 167.3,158.2 167.3,140.6 149.6,158.2 	"/>
	<polygon id="XMLID_110_" class="st7" points="149.6,193.5 149.6,175.9 149.6,158.2 167.3,175.9 	"/>
	<polygon id="XMLID_109_" class="st9" points="167.3,175.9 167.3,165.1 167.3,154.4 178,165.1 	"/>
</g>
</svg>
