<?xml version="1.0" encoding="utf-8"?>
<!-- Generator: Adobe Illustrator 19.0.0, SVG Export Plug-In . SVG Version: 6.00 Build 0)  -->
<svg version="1.1" id="Layer_1" xmlns="http://www.w3.org/2000/svg" xmlns:xlink="http://www.w3.org/1999/xlink" x="0px" y="0px"
	 viewBox="0 0 377.5 469.2" style="enable-background:new 0 0 377.5 469.2;" xml:space="preserve">
<style type="text/css">
	.st0{fill:url(#XMLID_104_);}
	.st1{fill:#22B1E4;}
	.st2{display:none;fill:#22B1E4;}
	.st3{font-family:'MyriadPro-Semibold';}
	.st4{font-size:89.9458px;}
	.st5{font-size:25.9402px;}
	.st6{fill:#3DB5E3;}
	.st7{fill:#21C2EC;}
	.st8{fill:#0E7CC1;}
	.st9{fill:#1694D2;}
	.st10{fill:#035599;}
	.st11{fill:#1E4385;}
	.st12{fill:#243D81;}
	.st13{fill:#212B5E;}
	.st14{fill:#222A62;}
	.st15{fill:#161D4A;}
	.st16{fill:#19315A;}
	.st17{display:none;}
	.st18{display:inline;fill:#0E7CC1;}
	.st19{font-family:'ProximaNova-Bold';}
	.st20{font-size:52.8222px;}
	.st21{font-family:'ProximaNova-Regular';}
	.st22{font-size:62.4939px;}
	.st23{font-size:29.759px;}
</style>
<g id="XMLID_10_">
	<linearGradient id="XMLID_104_" gradientUnits="userSpaceOnUse" x1="11.8537" y1="182.84" x2="194.6937" y2="182.84">
		<stop  offset="0" style="stop-color:#273C8E"/>
		<stop  offset="0.1995" style="stop-color:#255DA2"/>
		<stop  offset="0.3992" style="stop-color:#2678B6"/>
		<stop  offset="0.5859" style="stop-color:#2490C9"/>
		<stop  offset="0.754" style="stop-color:#23A2D7"/>
		<stop  offset="0.8977" style="stop-color:#23ADE0"/>
		<stop  offset="1" style="stop-color:#22B1E4"/>
	</linearGradient>
	<path id="XMLID_134_" class="st0" d="M82,182.8c0-62.2,50.5-112.7,112.7-112.7V0L11.9,182.8l182.8,182.8v-70.2
		C132.5,295.5,82,245.1,82,182.8z"/>
	<path id="XMLID_133_" class="st1" d="M82,182.8c0,62.2,50.5,112.7,112.7,112.7v-12.7c-55.2,0-100-44.8-100-100s44.8-100,100-100
		V70.2C132.5,70.2,82,120.6,82,182.8z"/>
	<text id="XMLID_132_" transform="matrix(1 0 0 1 115.9958 192.7508)" class="st2 st3 st4">acm</text>
	<text id="XMLID_131_" transform="matrix(1 0 0 1 150.2829 221.4246)" class="st2 st3 st5">Chapter</text>
	<g id="XMLID_65_">
		<path id="XMLID_84_" class="st1" d="M146.6,192.8l-0.7-4.9h-0.3c-2.7,3.4-7.3,5.8-13,5.8c-8.8,0-13.8-6.4-13.8-13
			c0-11.1,9.8-16.6,26-16.6v-0.7c0-2.9-1.2-7.6-8.9-7.6c-4.3,0-8.8,1.3-11.8,3.2l-2.2-7.2c3.2-2,8.9-3.9,15.8-3.9
			c14,0,18.1,8.9,18.1,18.4v15.8c0,4,0.2,7.8,0.6,10.5H146.6z M145.1,171.3c-7.8-0.2-15.3,1.5-15.3,8.2c0,4.3,2.8,6.3,6.3,6.3
			c4.4,0,7.6-2.9,8.6-6c0.3-0.8,0.4-1.7,0.4-2.4V171.3z"/>
		<path id="XMLID_87_" class="st1" d="M199.8,191.4c-2.3,1.1-6.9,2.2-12.4,2.2c-13.7,0-22.6-8.7-22.6-22.3c0-13.1,9-23.4,24.4-23.4
			c4,0,8.2,0.9,10.7,2.1l-2,8.3c-1.8-0.8-4.4-1.7-8.4-1.7c-8.5,0-13.5,6.2-13.4,14.2c0,9,5.8,14.1,13.4,14.1c3.9,0,6.6-0.8,8.7-1.7
			L199.8,191.4z"/>
		<path id="XMLID_89_" class="st1" d="M208,162c0-5-0.1-9.3-0.4-13h9.5l0.5,6.5h0.3c2.2-3.4,6.1-7.5,13.5-7.5
			c5.8,0,10.3,3.2,12.1,8.1h0.2c1.5-2.4,3.3-4.2,5.4-5.5c2.4-1.7,5.2-2.6,8.8-2.6c7.3,0,14.7,4.9,14.7,19v25.8h-10.8v-24.2
			c0-7.3-2.5-11.6-7.8-11.6c-3.8,0-6.6,2.7-7.7,5.8c-0.3,1.1-0.5,2.4-0.5,3.7v26.3h-10.8v-25.4c0-6.1-2.4-10.4-7.6-10.4
			c-4.1,0-6.9,3.2-7.9,6.3c-0.5,1.1-0.6,2.3-0.6,3.6v25.9H208V162z"/>
	</g>
	<g id="XMLID_3_">
		<path id="XMLID_67_" class="st1" d="M164.7,220.9c-0.8,0.4-2.4,0.8-4.5,0.8c-5.6,0-8.9-3.5-8.9-8.8c0-5.8,4-9.2,9.3-9.2
			c2.1,0,3.6,0.4,4.3,0.8l-0.7,2.5c-0.8-0.4-2-0.7-3.4-0.7c-3.6,0-6.1,2.2-6.1,6.4c0,3.8,2.3,6.3,6.1,6.3c1.3,0,2.6-0.3,3.5-0.6
			L164.7,220.9z"/>
		<path id="XMLID_69_" class="st1" d="M167.2,203h3.2v7.5h0.1c0.4-0.6,0.9-1.1,1.6-1.5c0.6-0.4,1.4-0.6,2.2-0.6
			c2.2,0,4.4,1.4,4.4,5.5v7.4h-3.2v-7.1c0-1.8-0.7-3.2-2.4-3.2c-1.2,0-2.1,0.8-2.5,1.8c-0.1,0.3-0.1,0.6-0.1,1v7.5h-3.2V203z"/>
		<path id="XMLID_71_" class="st1" d="M189.1,221.4l-0.2-1.4h-0.1c-0.8,1-2.1,1.7-3.7,1.7c-2.5,0-4-1.8-4-3.8c0-3.2,2.8-4.8,7.5-4.8
			V213c0-0.8-0.3-2.2-2.6-2.2c-1.2,0-2.5,0.4-3.4,0.9l-0.6-2.1c0.9-0.6,2.6-1.1,4.6-1.1c4,0,5.2,2.6,5.2,5.3v4.6
			c0,1.1,0.1,2.3,0.2,3H189.1z M188.7,215.3c-2.3-0.1-4.4,0.4-4.4,2.4c0,1.2,0.8,1.8,1.8,1.8c1.3,0,2.2-0.8,2.5-1.7
			c0.1-0.2,0.1-0.5,0.1-0.7V215.3z"/>
		<path id="XMLID_74_" class="st1" d="M195.2,213c0-1.7-0.1-3-0.1-4.2h2.8l0.2,1.9h0.1c0.9-1.4,2.4-2.2,4.3-2.2
			c2.9,0,5.3,2.5,5.3,6.4c0,4.6-2.9,6.8-5.8,6.8c-1.6,0-2.9-0.7-3.6-1.7h-0.1v6.5h-3.2V213z M198.4,216.1c0,0.3,0,0.6,0.1,0.9
			c0.3,1.3,1.5,2.2,2.8,2.2c2,0,3.2-1.7,3.2-4.2c0-2.2-1.1-4-3.1-4c-1.3,0-2.5,1-2.9,2.4c-0.1,0.3-0.1,0.5-0.1,0.8V216.1z"/>
		<path id="XMLID_77_" class="st1" d="M214,205.2v3.6h3v2.4h-3v5.6c0,1.5,0.4,2.3,1.6,2.3c0.5,0,1-0.1,1.2-0.2l0.1,2.4
			c-0.5,0.2-1.3,0.3-2.3,0.3c-1.2,0-2.2-0.4-2.7-1c-0.7-0.7-1-1.9-1-3.5v-5.9h-1.8v-2.4h1.8v-2.9L214,205.2z"/>
		<path id="XMLID_79_" class="st1" d="M221.6,216c0.1,2.3,1.9,3.3,3.9,3.3c1.5,0,2.5-0.2,3.5-0.6l0.5,2.2c-1.1,0.4-2.6,0.8-4.4,0.8
			c-4.1,0-6.5-2.5-6.5-6.4c0-3.5,2.1-6.8,6.2-6.8c4.1,0,5.4,3.4,5.4,6.1c0,0.6-0.1,1.1-0.1,1.3H221.6z M227.1,213.8
			c0-1.2-0.5-3.1-2.6-3.1c-2,0-2.8,1.8-2.9,3.1H227.1z"/>
		<path id="XMLID_82_" class="st1" d="M232.7,212.9c0-1.7,0-2.9-0.1-4.1h2.8l0.1,2.4h0.1c0.6-1.8,2.1-2.7,3.5-2.7
			c0.3,0,0.5,0,0.8,0.1v3c-0.3-0.1-0.5-0.1-0.9-0.1c-1.5,0-2.6,1-2.9,2.4c-0.1,0.3-0.1,0.6-0.1,1v6.5h-3.2V212.9z"/>
	</g>
	<polygon id="XMLID_130_" class="st6" points="194.7,0 194.7,28.2 194.7,56.4 222.9,28.2 	"/>
	<polygon id="XMLID_129_" class="st7" points="194.7,0 194.7,28.2 194.7,56.4 166.5,28.2 	"/>
	<polygon id="XMLID_128_" class="st7" points="194.7,309.3 194.7,337.5 194.7,365.7 166.5,337.5 	"/>
	<polygon id="XMLID_127_" class="st8" points="194.7,56.4 194.7,84.6 194.7,112.7 222.9,84.6 	"/>
	<polygon id="XMLID_126_" class="st9" points="222.9,28.2 222.9,56.4 222.9,84.6 194.7,56.4 	"/>
	<polygon id="XMLID_125_" class="st10" points="251.1,56.4 251.1,84.6 251.1,112.7 222.9,84.6 	"/>
	<polygon id="XMLID_124_" class="st11" points="251,56.4 251,84.6 251,112.7 279.2,84.6 	"/>
	<polygon id="XMLID_123_" class="st8" points="222.9,28.2 222.9,56.4 222.9,84.6 251.1,56.4 	"/>
	<polygon id="XMLID_122_" class="st12" points="321.2,126.5 321.2,143.7 321.2,160.8 304,143.7 	"/>
	<polygon id="XMLID_121_" class="st6" points="194.7,365.7 194.7,337.5 194.7,309.3 222.9,337.5 	"/>
	<polygon id="XMLID_120_" class="st8" points="194.7,309.3 194.7,281.1 194.7,252.9 222.9,281.1 	"/>
	<polygon id="XMLID_119_" class="st11" points="251.1,252.9 251.1,224.8 251.1,196.6 279.2,224.8 	"/>
	<polygon id="XMLID_118_" class="st9" points="222.9,337.5 222.9,309.3 222.9,281.1 194.7,309.3 	"/>
	<polygon id="XMLID_117_" class="st10" points="251.1,309.3 251.1,281.1 251.1,252.9 222.9,281.1 	"/>
	<polygon id="XMLID_116_" class="st8" points="222.9,337.5 222.9,309.3 222.9,281.1 251.1,309.3 	"/>
	<polygon id="XMLID_115_" class="st11" points="321.2,239.2 321.2,211 321.2,182.8 349.3,211 	"/>
	<polygon id="XMLID_114_" class="st13" points="321.2,182.8 321.2,154.7 321.2,126.5 349.3,154.7 	"/>
	<polygon id="XMLID_113_" class="st14" points="349.3,211 349.3,182.8 349.3,154.7 321.2,182.8 	"/>
	<polygon id="XMLID_112_" class="st15" points="349.3,211 349.3,182.8 349.3,154.7 377.5,182.8 	"/>
	<polygon id="XMLID_111_" class="st16" points="279.2,281.1 279.2,252.9 279.2,224.8 251.1,252.9 	"/>
	<polygon id="XMLID_110_" class="st11" points="251.1,309.3 251.1,281.1 251.1,252.9 279.2,281.1 	"/>
	<polygon id="XMLID_109_" class="st13" points="279.2,281.1 279.2,263.9 279.2,246.8 296.4,263.9 	"/>
</g>
<text id="XMLID_1_" transform="matrix(1 0 0 1 12.9544 423.9151)" class="st17"><tspan x="0" y="0" class="st18 st19 st20">ACM</tspan><tspan x="117.6" y="0" class="st18 st21 st20"> BITS Goa</tspan><tspan x="347.5" y="0" class="st18 st21 st22"> </tspan><tspan x="74.9" y="35.7" class="st18 st21 st23">Student Chapter</tspan></text>
<g id="XMLID_2_">
	<path id="XMLID_4_" class="st8" d="M30.6,424.3l-2.4-6.5H11.8l-2.4,6.5H0l14.9-38.4h10.3l14.8,38.4H30.6z M20,394l-6,16.5h12
		L20,394z"/>
	<path id="XMLID_7_" class="st8" d="M39.7,405.1c0-11.8,8.9-19.9,20.5-19.9c8.5,0,13.4,4.6,16.1,9.4l-7,3.5c-1.6-3.1-5.1-5.6-9-5.6
		c-7,0-12,5.4-12,12.6s5.1,12.6,12,12.6c4,0,7.4-2.4,9-5.6l7,3.4c-2.8,4.8-7.6,9.5-16.1,9.5C48.6,425,39.7,416.9,39.7,405.1z"/>
	<path id="XMLID_11_" class="st8" d="M114.6,424.3v-26.9l-10.8,26.9h-3.6l-10.8-26.9v26.9h-8.2v-38.4h11.5l9.3,23.2l9.3-23.2h11.5
		v38.4H114.6z"/>
	<path id="XMLID_14_" class="st8" d="M146,424.3v-38.4h17.1c6.7,0,10.8,4,10.8,9.8c0,4.8-3.2,8.1-6.7,8.8c4.1,0.6,7.5,4.8,7.5,9.5
		c0,6.2-4.1,10.4-11.1,10.4H146z M168.9,396.3c0-3.5-2.3-6.2-6.6-6.2h-11.5v12.4h11.5C166.6,402.5,168.9,399.9,168.9,396.3z
		 M169.7,413.4c0-3.5-2.4-6.6-7.1-6.6h-11.8V420h11.8C167,420,169.7,417.5,169.7,413.4z"/>
	<path id="XMLID_18_" class="st8" d="M182.3,424.3v-38.4h4.8v38.4H182.3z"/>
	<path id="XMLID_20_" class="st8" d="M205.5,424.3v-34.2h-12.2v-4.3h29.2v4.3h-12.2v34.2H205.5z"/>
	<path id="XMLID_22_" class="st8" d="M226.4,418.9l2.8-3.6c2.5,2.8,6.7,5.5,12.1,5.5c6.9,0,9.1-3.7,9.1-6.6
		c0-9.9-22.8-4.4-22.8-18.2c0-6.3,5.6-10.7,13.2-10.7c5.9,0,10.4,2,13.7,5.4l-2.9,3.5c-2.9-3.2-6.9-4.6-11.1-4.6
		c-4.6,0-7.9,2.5-7.9,6.1c0,8.6,22.8,3.7,22.8,18c0,5.6-3.8,11.3-14.2,11.3C234.5,425,229.6,422.5,226.4,418.9z"/>
	<path id="XMLID_24_" class="st8" d="M275.8,405.1c0-11.9,8.8-19.9,19.8-19.9c6.8,0,11.5,3,14.9,7.2l-3.8,2.4
		c-2.4-3.1-6.5-5.3-11.1-5.3c-8.4,0-14.8,6.5-14.8,15.6c0,9.1,6.4,15.7,14.8,15.7c4.6,0,8.4-2.2,10.3-4.1v-7.8h-13.2v-4.3h18v13.9
		c-3.6,4-8.8,6.6-15.1,6.6C284.6,425.1,275.8,417,275.8,405.1z"/>
	<path id="XMLID_26_" class="st8" d="M316.7,410.4c0-8.1,5.3-14.6,13.8-14.6c8.5,0,13.8,6.5,13.8,14.6c0,8.1-5.3,14.6-13.8,14.6
		C322,425,316.7,418.4,316.7,410.4z M339.7,410.4c0-5.6-3.3-10.7-9.2-10.7c-5.9,0-9.3,5.1-9.3,10.7c0,5.7,3.3,10.8,9.3,10.8
		C336.4,421.1,339.7,416.1,339.7,410.4z"/>
	<path id="XMLID_29_" class="st8" d="M368.7,424.3v-3.2c-2.3,2.5-5.5,3.9-9.2,3.9c-4.7,0-9.7-3.2-9.7-9.2c0-6.2,5-9.2,9.7-9.2
		c3.8,0,7,1.2,9.2,3.8v-5c0-3.7-3-5.9-7-5.9c-3.3,0-6.1,1.2-8.5,3.9l-2-3c3-3.1,6.6-4.6,11.1-4.6c5.9,0,10.8,2.7,10.8,9.4v19.1
		H368.7z M368.7,418.4v-5.2c-1.7-2.3-4.6-3.5-7.7-3.5c-4,0-6.9,2.5-6.9,6.1c0,3.5,2.8,6.1,6.9,6.1
		C364.1,421.9,367,420.7,368.7,418.4z"/>
	<path id="XMLID_32_" class="st8" d="M82.4,460.2l1.6-2c1.4,1.6,3.8,3.1,6.8,3.1c3.9,0,5.1-2.1,5.1-3.7c0-5.6-12.8-2.5-12.8-10.2
		c0-3.6,3.2-6,7.4-6c3.3,0,5.9,1.1,7.7,3l-1.6,2c-1.6-1.8-3.9-2.6-6.3-2.6c-2.6,0-4.4,1.4-4.4,3.4c0,4.9,12.8,2.1,12.8,10.2
		c0,3.1-2.1,6.4-8,6.4C87,463.7,84.2,462.2,82.4,460.2z"/>
	<path id="XMLID_34_" class="st8" d="M102.6,460v-10.3H100v-2.1h2.6v-4.3h2.4v4.3h3.2v2.1H105v9.7c0,1.2,0.5,2,1.6,2
		c0.7,0,1.3-0.3,1.7-0.6l0.7,1.8c-0.6,0.6-1.5,1-2.9,1C103.8,463.7,102.6,462.3,102.6,460z"/>
	<path id="XMLID_36_" class="st8" d="M122.2,463.3v-2.2c-1.2,1.4-3.2,2.6-5.6,2.6c-3.3,0-5-1.6-5-5v-11.1h2.4v10.3
		c0,2.8,1.4,3.6,3.5,3.6c1.9,0,3.7-1.1,4.6-2.4v-11.5h2.4v15.7H122.2z"/>
	<path id="XMLID_38_" class="st8" d="M140.9,463.3v-2.3c-1.2,1.6-3.1,2.7-5.3,2.7c-4.1,0-7-3.1-7-8.2c0-5,2.9-8.2,7-8.2
		c2.1,0,4,1,5.3,2.8v-8.3h2.4v21.7H140.9z M140.9,459v-7.1c-0.9-1.4-2.8-2.5-4.7-2.5c-3.1,0-5,2.6-5,6.1s1.9,6,5,6
		C138.2,461.5,140,460.4,140.9,459z"/>
	<path id="XMLID_41_" class="st8" d="M147.3,455.4c0-4.5,3.2-8.2,7.7-8.2c4.7,0,7.5,3.7,7.5,8.4v0.6h-12.7c0.2,3,2.3,5.4,5.6,5.4
		c1.8,0,3.6-0.7,4.8-2l1.2,1.6c-1.6,1.6-3.7,2.4-6.2,2.4C150.7,463.7,147.3,460.3,147.3,455.4z M155,449.2c-3.3,0-5,2.8-5.1,5.2
		h10.3C160.1,452.1,158.6,449.2,155,449.2z"/>
	<path id="XMLID_44_" class="st8" d="M177.1,463.3V453c0-2.8-1.4-3.6-3.5-3.6c-1.9,0-3.7,1.2-4.6,2.4v11.5h-2.4v-15.7h2.4v2.3
		c1.1-1.3,3.2-2.7,5.6-2.7c3.3,0,5,1.7,5,5.1v11H177.1z"/>
	<path id="XMLID_46_" class="st8" d="M184.9,460v-10.3h-2.6v-2.1h2.6v-4.3h2.4v4.3h3.2v2.1h-3.2v9.7c0,1.2,0.5,2,1.6,2
		c0.7,0,1.3-0.3,1.7-0.6l0.7,1.8c-0.6,0.6-1.5,1-2.9,1C186.1,463.7,184.9,462.3,184.9,460z"/>
	<path id="XMLID_48_" class="st8" d="M201.5,452.5c0-6.7,4.9-11.2,11.1-11.2c3.8,0,6.5,1.9,8.2,4.3l-2.3,1.3
		c-1.2-1.8-3.5-3.1-5.9-3.1c-4.7,0-8.3,3.6-8.3,8.8c0,5.1,3.6,8.8,8.3,8.8c2.5,0,4.7-1.3,5.9-3.2l2.3,1.3c-1.8,2.5-4.4,4.3-8.2,4.3
		C206.4,463.7,201.5,459.1,201.5,452.5z"/>
	<path id="XMLID_50_" class="st8" d="M234.9,463.3v-10.3c0-2.8-1.4-3.6-3.5-3.6c-1.9,0-3.7,1.2-4.6,2.4v11.5h-2.4v-21.7h2.4v8.2
		c1.1-1.3,3.2-2.7,5.6-2.7c3.3,0,5,1.6,5,5v11.1H234.9z"/>
	<path id="XMLID_52_" class="st8" d="M252,463.3v-1.8c-1.3,1.4-3.1,2.2-5.2,2.2c-2.7,0-5.5-1.8-5.5-5.2c0-3.5,2.8-5.2,5.5-5.2
		c2.1,0,3.9,0.7,5.2,2.1v-2.8c0-2.1-1.7-3.3-4-3.3c-1.9,0-3.4,0.7-4.8,2.2l-1.1-1.7c1.7-1.8,3.7-2.6,6.3-2.6c3.3,0,6.1,1.5,6.1,5.3
		v10.8H252z M252,460v-3c-0.9-1.3-2.6-1.9-4.3-1.9c-2.3,0-3.9,1.4-3.9,3.4c0,2,1.6,3.4,3.9,3.4C249.4,461.9,251.1,461.3,252,460z"/>
	<path id="XMLID_55_" class="st8" d="M261.7,460.9v8.3h-2.4v-21.7h2.4v2.3c1.1-1.6,3.1-2.7,5.3-2.7c4.1,0,7,3.1,7,8.2
		c0,5.1-2.9,8.2-7,8.2C264.9,463.7,263,462.7,261.7,460.9z M271.5,455.4c0-3.5-1.9-6-5-6c-1.9,0-3.8,1.1-4.7,2.5v7.1
		c0.8,1.4,2.8,2.5,4.7,2.5C269.6,461.5,271.5,458.9,271.5,455.4z"/>
	<path id="XMLID_58_" class="st8" d="M278.4,460v-10.3h-2.6v-2.1h2.6v-4.3h2.4v4.3h3.2v2.1h-3.2v9.7c0,1.2,0.5,2,1.6,2
		c0.7,0,1.3-0.3,1.7-0.6l0.7,1.8c-0.6,0.6-1.5,1-2.9,1C279.5,463.7,278.4,462.3,278.4,460z"/>
	<path id="XMLID_60_" class="st8" d="M286.5,455.4c0-4.5,3.2-8.2,7.7-8.2c4.7,0,7.5,3.7,7.5,8.4v0.6h-12.7c0.2,3,2.3,5.4,5.7,5.4
		c1.8,0,3.6-0.7,4.8-2l1.2,1.6c-1.6,1.6-3.7,2.4-6.2,2.4C289.9,463.7,286.5,460.3,286.5,455.4z M294.2,449.2c-3.3,0-5,2.8-5.1,5.2
		h10.3C299.3,452.1,297.8,449.2,294.2,449.2z"/>
	<path id="XMLID_63_" class="st8" d="M305.7,463.3v-15.7h2.4v2.5c1.3-1.7,3.1-2.9,5.2-2.9v2.5c-0.3-0.1-0.6-0.1-1-0.1
		c-1.5,0-3.5,1.2-4.3,2.5v11.1H305.7z"/>
</g>
</svg>
