<?xml version="1.0" encoding="utf-8"?>
<!-- Generator: Adobe Illustrator 19.0.0, SVG Export Plug-In . SVG Version: 6.00 Build 0)  -->
<svg version="1.1" id="Layer_1" xmlns="http://www.w3.org/2000/svg" xmlns:xlink="http://www.w3.org/1999/xlink" x="0px" y="0px"
	 viewBox="0 0 228.8 228.8" style="enable-background:new 0 0 228.8 228.8;" xml:space="preserve">
<style type="text/css">
	.st0{fill:url(#XMLID_13_);}
	.st1{fill:#22B1E4;}
	.st2{fill:#3DB5E3;}
	.st3{fill:#21C2EC;}
	.st4{fill:#0E7CC1;}
	.st5{fill:#1694D2;}
	.st6{fill:#035599;}
	.st7{fill:#1E4385;}
	.st8{fill:#243D81;}
	.st9{fill:#212B5E;}
	.st10{fill:#222A62;}
	.st11{fill:#161D4A;}
	.st12{fill:#19315A;}
</style>
<g id="XMLID_10_">
	<linearGradient id="XMLID_13_" gradientUnits="userSpaceOnUse" x1="8.088" y1="114.3769" x2="114.3769" y2="114.3769">
		<stop  offset="0" style="stop-color:#273C8E"/>
		<stop  offset="0.1995" style="stop-color:#255DA2"/>
		<stop  offset="0.3992" style="stop-color:#2678B6"/>
		<stop  offset="0.5859" style="stop-color:#2490C9"/>
		<stop  offset="0.754" style="stop-color:#23A2D7"/>
		<stop  offset="0.8977" style="stop-color:#23ADE0"/>
		<stop  offset="1" style="stop-color:#22B1E4"/>
	</linearGradient>
	<path id="XMLID_134_" class="st0" d="M48.9,114.4c0-36.2,29.3-65.5,65.5-65.5V8.1L8.1,114.4l106.3,106.3v-40.8
		C78.2,179.9,48.9,150.6,48.9,114.4z"/>
	<path id="XMLID_133_" class="st1" d="M48.9,114.4c0,36.2,29.3,65.5,65.5,65.5v-7.4c-32.1,0-58.1-26-58.1-58.1s26-58.1,58.1-58.1
		v-7.4C78.2,48.9,48.9,78.2,48.9,114.4z"/>
	<g id="XMLID_132_">
		<path id="XMLID_94_" class="st1" d="M86.4,120.1l-0.4-2.8h-0.2c-1.6,2-4.2,3.4-7.5,3.4c-5.1,0-8-3.7-8-7.6c0-6.4,5.7-9.7,15.1-9.6
			v-0.4c0-1.7-0.7-4.4-5.2-4.4c-2.5,0-5.1,0.8-6.8,1.9l-1.3-4.2c1.9-1.1,5.2-2.2,9.2-2.2c8.2,0,10.5,5.2,10.5,10.7v9.2
			c0,2.3,0.1,4.5,0.4,6.1H86.4z M85.6,107.7c-4.5-0.1-8.9,0.9-8.9,4.8c0,2.5,1.6,3.7,3.7,3.7c2.6,0,4.4-1.7,5-3.5
			c0.2-0.5,0.2-1,0.2-1.4V107.7z"/>
		<path id="XMLID_97_" class="st1" d="M117.4,119.4c-1.4,0.6-4,1.3-7.2,1.3c-7.9,0-13.1-5.1-13.1-13c0-7.6,5.2-13.6,14.2-13.6
			c2.4,0,4.8,0.5,6.2,1.2l-1.2,4.8c-1-0.5-2.6-1-4.9-1c-4.9,0-7.8,3.6-7.8,8.3c0,5.2,3.4,8.2,7.8,8.2c2.2,0,3.8-0.5,5.1-1
			L117.4,119.4z"/>
		<path id="XMLID_99_" class="st1" d="M122.1,102.3c0-2.9-0.1-5.4-0.2-7.6h5.5l0.3,3.8h0.2c1.3-2,3.6-4.3,7.8-4.3
			c3.3,0,6,1.9,7.1,4.7h0.1c0.9-1.4,1.9-2.5,3.1-3.2c1.4-1,3-1.5,5.1-1.5c4.2,0,8.5,2.9,8.5,11v15h-6.3v-14.1c0-4.2-1.5-6.7-4.5-6.7
			c-2.2,0-3.8,1.6-4.5,3.4c-0.2,0.6-0.3,1.4-0.3,2.1v15.3h-6.3v-14.7c0-3.6-1.4-6.1-4.4-6.1c-2.4,0-4,1.9-4.6,3.7
			c-0.3,0.6-0.4,1.4-0.4,2.1v15.1h-6.3V102.3z"/>
	</g>
	<g id="XMLID_131_">
		<path id="XMLID_77_" class="st1" d="M96.9,136.5c-0.4,0.2-1.4,0.5-2.6,0.5c-3.2,0-5.2-2-5.2-5.1c0-3.3,2.3-5.4,5.4-5.4
			c1.2,0,2.1,0.3,2.5,0.5l-0.4,1.5c-0.5-0.2-1.1-0.4-2-0.4c-2.1,0-3.6,1.3-3.6,3.7c0,2.2,1.3,3.7,3.5,3.7c0.8,0,1.5-0.2,2-0.4
			L96.9,136.5z"/>
		<path id="XMLID_79_" class="st1" d="M98.4,126.1h1.9v4.4h0c0.2-0.3,0.5-0.6,0.9-0.8c0.4-0.2,0.8-0.3,1.3-0.3
			c1.3,0,2.6,0.8,2.6,3.2v4.3h-1.9v-4.1c0-1.1-0.4-1.9-1.4-1.9c-0.7,0-1.2,0.5-1.4,1c-0.1,0.2-0.1,0.3-0.1,0.6v4.4h-1.9V126.1z"/>
		<path id="XMLID_81_" class="st1" d="M111.1,136.8L111,136h0c-0.5,0.6-1.2,1-2.2,1c-1.5,0-2.3-1.1-2.3-2.2c0-1.9,1.6-2.8,4.4-2.8
			v-0.1c0-0.5-0.2-1.3-1.5-1.3c-0.7,0-1.5,0.2-2,0.5l-0.4-1.2c0.5-0.3,1.5-0.6,2.7-0.6c2.4,0,3,1.5,3,3.1v2.7c0,0.7,0,1.3,0.1,1.8
			H111.1z M110.9,133.2c-1.3,0-2.6,0.3-2.6,1.4c0,0.7,0.5,1.1,1.1,1.1c0.7,0,1.3-0.5,1.4-1c0-0.1,0.1-0.3,0.1-0.4V133.2z"/>
		<path id="XMLID_84_" class="st1" d="M114.7,131.9c0-1,0-1.7-0.1-2.4h1.6l0.1,1.1h0c0.5-0.8,1.4-1.3,2.5-1.3c1.7,0,3.1,1.4,3.1,3.7
			c0,2.7-1.7,3.9-3.3,3.9c-0.9,0-1.7-0.4-2.1-1h0v3.8h-1.9V131.9z M116.5,133.7c0,0.2,0,0.3,0.1,0.5c0.2,0.8,0.8,1.3,1.6,1.3
			c1.2,0,1.9-1,1.9-2.4c0-1.3-0.6-2.4-1.8-2.4c-0.8,0-1.5,0.6-1.7,1.4c0,0.2-0.1,0.3-0.1,0.5V133.7z"/>
		<path id="XMLID_87_" class="st1" d="M125.6,127.4v2.1h1.8v1.4h-1.8v3.2c0,0.9,0.2,1.4,0.9,1.4c0.3,0,0.6,0,0.7-0.1l0,1.4
			c-0.3,0.1-0.8,0.2-1.3,0.2c-0.7,0-1.3-0.2-1.6-0.6c-0.4-0.4-0.6-1.1-0.6-2.1v-3.5h-1.1v-1.4h1.1v-1.7L125.6,127.4z"/>
		<path id="XMLID_89_" class="st1" d="M130,133.7c0,1.3,1.1,1.9,2.3,1.9c0.9,0,1.5-0.1,2-0.3l0.3,1.3c-0.6,0.3-1.5,0.5-2.6,0.5
			c-2.4,0-3.8-1.5-3.8-3.7c0-2,1.2-3.9,3.6-3.9c2.4,0,3.2,2,3.2,3.6c0,0.3,0,0.6-0.1,0.8H130z M133.2,132.4c0-0.7-0.3-1.8-1.5-1.8
			c-1.1,0-1.6,1-1.7,1.8H133.2z"/>
		<path id="XMLID_92_" class="st1" d="M136.5,131.8c0-1,0-1.7-0.1-2.4h1.6l0.1,1.4h0.1c0.4-1,1.2-1.6,2-1.6c0.2,0,0.3,0,0.4,0v1.7
			c-0.2,0-0.3-0.1-0.5-0.1c-0.9,0-1.5,0.6-1.7,1.4c0,0.2-0.1,0.4-0.1,0.6v3.8h-1.9V131.8z"/>
	</g>
	<polygon id="XMLID_130_" class="st2" points="114.4,8.1 114.4,24.5 114.4,40.9 130.8,24.5 	"/>
	<polygon id="XMLID_129_" class="st3" points="114.4,8.1 114.4,24.5 114.4,40.9 98,24.5 	"/>
	<polygon id="XMLID_128_" class="st3" points="114.4,187.9 114.4,204.3 114.4,220.7 98,204.3 	"/>
	<polygon id="XMLID_127_" class="st4" points="114.4,40.9 114.4,57.2 114.4,73.6 130.8,57.2 	"/>
	<polygon id="XMLID_126_" class="st5" points="130.8,24.5 130.8,40.9 130.8,57.2 114.4,40.9 	"/>
	<polygon id="XMLID_125_" class="st6" points="147.1,40.9 147.1,57.2 147.1,73.6 130.8,57.2 	"/>
	<polygon id="XMLID_124_" class="st7" points="147.1,40.9 147.1,57.2 147.1,73.6 163.5,57.2 	"/>
	<polygon id="XMLID_123_" class="st4" points="130.8,24.5 130.8,40.9 130.8,57.2 147.1,40.9 	"/>
	<polygon id="XMLID_122_" class="st8" points="187.9,81.6 187.9,91.6 187.9,101.6 177.9,91.6 	"/>
	<polygon id="XMLID_121_" class="st2" points="114.4,220.7 114.4,204.3 114.4,187.9 130.8,204.3 	"/>
	<polygon id="XMLID_120_" class="st4" points="114.4,187.9 114.4,171.5 114.4,155.1 130.8,171.5 	"/>
	<polygon id="XMLID_119_" class="st7" points="147.1,155.1 147.1,138.7 147.1,122.4 163.5,138.7 	"/>
	<polygon id="XMLID_118_" class="st5" points="130.8,204.3 130.8,187.9 130.8,171.5 114.4,187.9 	"/>
	<polygon id="XMLID_117_" class="st6" points="147.1,187.9 147.1,171.5 147.1,155.1 130.8,171.5 	"/>
	<polygon id="XMLID_116_" class="st4" points="130.8,204.3 130.8,187.9 130.8,171.5 147.1,187.9 	"/>
	<polygon id="XMLID_115_" class="st7" points="187.9,147.1 187.9,130.8 187.9,114.4 204.3,130.8 	"/>
	<polygon id="XMLID_114_" class="st9" points="187.9,114.4 187.9,98 187.9,81.6 204.3,98 	"/>
	<polygon id="XMLID_113_" class="st10" points="204.3,130.8 204.3,114.4 204.3,98 187.9,114.4 	"/>
	<polygon id="XMLID_112_" class="st11" points="204.3,130.8 204.3,114.4 204.3,98 220.7,114.4 	"/>
	<polygon id="XMLID_111_" class="st12" points="163.5,171.5 163.5,155.1 163.5,138.7 147.1,155.1 	"/>
	<polygon id="XMLID_110_" class="st7" points="147.1,187.9 147.1,171.5 147.1,155.1 163.5,171.5 	"/>
	<polygon id="XMLID_109_" class="st9" points="163.5,171.5 163.5,161.5 163.5,151.5 173.5,161.5 	"/>
</g>
</svg>
